<svg width="1376" height="358" viewBox="0 0 1376 358" fill="none" xmlns="http://www.w3.org/2000/svg">
    <path d="M0 0H40.5486V339.47H0V0Z" fill="#FFFEF7"/>
    <path d="M297.999 339.47H259.836V300.483H258.881C250.295 315.697 239.323 326.949 225.965 334.24C212.608 341.213 196.866 344.7 178.738 344.7C162.519 344.7 149.003 342.639 138.19 338.519C127.377 334.081 118.631 327.9 111.952 319.976C105.274 312.052 100.503 302.702 97.641 291.925C95.0967 280.831 93.8246 268.628 93.8246 255.315V93.6632H134.373V260.07C134.373 275.284 138.826 287.329 147.73 296.204C156.635 305.079 168.879 309.516 184.463 309.516C196.866 309.516 207.52 307.615 216.425 303.811C225.647 300.007 233.28 294.619 239.323 287.646C245.365 280.673 249.818 272.59 252.68 263.398C255.86 253.889 257.45 243.588 257.45 232.494V93.6632H297.999V339.47Z" fill="#FFFEF7"/>
    <path d="M674.531 49.4466V0L715.08 49.4466H674.531ZM674.531 93.6632H715.08V339.47H674.531V93.6632Z" fill="#FFFEF7"/>
    <path d="M768.356 93.6632H806.519V132.65H807.473C824.329 102.855 851.043 87.9578 887.616 87.9578C903.836 87.9578 917.352 90.1766 928.165 94.6141C938.978 99.0516 947.724 105.232 954.402 113.157C961.081 121.081 965.692 130.59 968.237 141.683C971.099 152.46 972.53 164.505 972.53 177.817V339.47H931.981V173.063C931.981 157.849 927.529 145.804 918.624 136.929C909.719 128.054 897.475 123.616 881.892 123.616C869.489 123.616 858.676 125.518 849.453 129.322C840.548 133.125 833.074 138.514 827.032 145.487C820.989 152.46 816.378 160.701 813.198 170.21C810.335 179.402 808.904 189.545 808.904 200.639V339.47H768.356V93.6632Z" fill="#FFFEF7"/>
    <path d="M1242.38 338.519C1235.38 342.639 1225.68 344.7 1213.28 344.7C1202.78 344.7 1194.35 341.847 1187.99 336.141C1181.95 330.119 1178.93 320.452 1178.93 307.139C1167.8 320.452 1154.76 330.119 1139.81 336.141C1125.18 341.847 1109.28 344.7 1092.11 344.7C1080.98 344.7 1070.32 343.432 1060.15 340.896C1050.29 338.36 1041.7 334.398 1034.39 329.01C1027.07 323.621 1021.19 316.648 1016.73 308.09C1012.6 299.215 1010.53 288.597 1010.53 276.235C1010.53 262.289 1012.92 250.878 1017.69 242.003C1022.46 233.128 1028.66 225.996 1036.29 220.608C1044.24 214.902 1053.15 210.623 1063.01 207.771C1073.18 204.918 1083.52 202.541 1094.02 200.639C1105.15 198.42 1115.64 196.835 1125.5 195.884C1135.68 194.617 1144.58 193.032 1152.21 191.13C1159.85 188.911 1165.89 185.9 1170.34 182.096C1174.79 177.976 1177.02 172.112 1177.02 164.505C1177.02 155.63 1175.27 148.498 1171.77 143.11C1168.59 137.721 1164.3 133.601 1158.89 130.748C1153.8 127.895 1147.92 125.994 1141.24 125.043C1134.88 124.092 1128.52 123.616 1122.16 123.616C1104.99 123.616 1090.68 126.945 1079.23 133.601C1067.78 139.94 1061.58 152.143 1060.62 170.21H1020.07C1020.71 154.996 1023.89 142.159 1029.61 131.699C1035.34 121.239 1042.97 112.84 1052.51 106.5C1062.05 99.844 1072.87 95.0895 1084.95 92.2368C1097.35 89.3841 1110.55 87.9578 1124.55 87.9578C1135.68 87.9578 1146.65 88.7502 1157.46 90.335C1168.59 91.9199 1178.61 95.248 1187.52 100.319C1196.42 105.074 1203.58 111.889 1208.98 120.764C1214.39 129.639 1217.09 141.208 1217.09 155.471V281.94C1217.09 291.449 1217.57 298.423 1218.52 302.86C1219.8 307.298 1223.61 309.516 1229.97 309.516C1233.47 309.516 1237.61 308.724 1242.38 307.139V338.519ZM1176.54 212.525C1171.46 216.329 1164.78 219.181 1156.51 221.083C1148.24 222.668 1139.49 224.094 1130.27 225.362C1121.37 226.313 1112.3 227.581 1103.08 229.166C1093.86 230.434 1085.59 232.652 1078.27 235.822C1070.96 238.992 1064.92 243.588 1060.15 249.61C1055.69 255.315 1053.47 263.24 1053.47 273.382C1053.47 280.039 1054.74 285.744 1057.28 290.498C1060.15 294.936 1063.64 298.581 1067.78 301.434C1072.23 304.286 1077.32 306.347 1083.04 307.615C1088.77 308.882 1094.81 309.516 1101.17 309.516C1114.53 309.516 1125.98 307.773 1135.52 304.286C1145.06 300.483 1152.85 295.887 1158.89 290.498C1164.94 284.793 1169.39 278.771 1172.25 272.432C1175.11 265.775 1176.54 259.594 1176.54 253.889V212.525Z" fill="#FFFEF7"/>
    <path d="M1326.86 93.6632H1376V129.322H1326.86V281.94C1326.86 286.695 1327.18 290.499 1327.82 293.351C1328.77 296.204 1330.36 298.423 1332.59 300.007C1334.82 301.592 1337.84 302.702 1341.65 303.336C1345.79 303.653 1351.03 303.811 1357.4 303.811H1376V339.47H1344.99C1334.5 339.47 1325.43 338.836 1317.8 337.568C1310.49 335.983 1304.44 333.289 1299.67 329.485C1295.22 325.682 1291.88 320.293 1289.66 313.32C1287.43 306.347 1286.32 297.155 1286.32 285.744V129.322H1244.34V93.6632H1286.32V19.9688H1326.86V93.6632Z" fill="#FFFEF7"/>
    <path d="M544.952 87.4564C554.571 87.4564 560.744 93.5944 563.101 96.2004C566.107 99.5227 568.575 103.527 570.587 107.272C574.696 114.918 578.796 125.099 582.76 136.31C590.764 158.95 599.23 188.74 606.901 218.05C614.6 247.469 621.612 276.842 626.694 298.829C629.236 309.83 631.3 319.001 632.729 325.427C633.443 328.641 633.999 331.17 634.378 332.899C634.567 333.763 634.712 334.428 634.81 334.879C634.858 335.103 634.895 335.274 634.92 335.391C634.933 335.449 634.943 335.494 634.949 335.525C634.953 335.539 634.955 335.551 634.957 335.559C634.958 335.563 634.958 335.57 634.958 335.57C634.944 335.576 634.427 335.687 616.782 339.47H597.753C597.408 337.895 596.963 335.87 596.424 333.447C595.014 327.105 592.972 318.034 590.456 307.146C585.42 285.356 578.497 256.358 570.919 227.406C563.987 200.917 556.595 174.827 549.682 154.408C547.15 174.353 544.997 199.032 542.673 224.413C540.016 253.432 537.129 283.393 533.168 306.155C531.213 317.39 528.814 328.001 525.617 336.171C524.049 340.176 521.834 344.809 518.528 348.744C515.195 352.711 508.923 358 499.649 358C491.308 358 485.204 353.604 482.009 350.839C478.425 347.737 475.304 343.876 472.642 340.112C467.261 332.502 461.712 322.322 456.219 311.129C445.156 288.587 432.817 258.795 420.861 229.766C408.925 200.786 397.361 172.557 387.296 151.33C387.093 171.162 388.244 196.067 390 221.454C391.999 250.356 394.742 279.316 396.992 301.09C398.116 311.966 399.114 321.027 399.83 327.362C400.188 330.528 400.477 333.013 400.674 334.701C400.773 335.545 400.848 336.19 400.899 336.621C400.925 336.837 400.945 337.001 400.957 337.108C400.964 337.161 400.969 337.202 400.972 337.228C400.973 337.24 400.975 337.249 400.976 337.255V337.262L401.242 339.47H363.796C363.778 339.318 363.759 339.16 363.74 338.994C363.537 337.262 363.243 334.73 362.879 331.513C362.151 325.079 361.141 315.899 360.003 304.886C357.729 282.882 354.94 253.471 352.902 224.002C350.874 194.68 349.546 164.725 350.307 141.855C350.682 130.603 351.586 119.979 353.548 111.74C354.496 107.762 356.017 102.87 358.814 98.5547C361.66 94.1635 367.938 87.4565 378.327 87.4564C387.081 87.4565 393.224 92.4587 396.019 95.055C399.367 98.1654 402.289 102.005 404.781 105.721C409.837 113.258 415.142 123.364 420.458 134.517C431.159 156.968 443.325 186.715 455.259 215.691C467.343 245.031 479.201 273.611 489.622 294.846C491.65 298.979 493.569 302.718 495.371 306.048C495.757 304.102 496.146 302.026 496.529 299.821C500.186 278.805 502.954 250.395 505.642 221.043C508.288 192.153 510.857 162.316 514.138 139.805C515.761 128.666 517.695 118.304 520.211 110.409C521.429 106.588 523.163 102.095 525.822 98.1946C528.155 94.772 534.266 87.4568 544.952 87.4564Z" fill="#FFFEF7"/>
    <path d="M635.801 339.47H616.782L634.96 335.574L635.801 339.47Z" fill="#FFFEF7"/>
</svg>
